<?xml version="1.0" encoding="UTF-8" standalone="no"?>
<!-- Generator: Adobe Illustrator 19.0.0, SVG Export Plug-In . SVG Version: 6.00 Build 0)  -->

<svg
   xmlns:dc="http://purl.org/dc/elements/1.1/"
   xmlns:cc="http://creativecommons.org/ns#"
   xmlns:rdf="http://www.w3.org/1999/02/22-rdf-syntax-ns#"
   xmlns:svg="http://www.w3.org/2000/svg"
   xmlns="http://www.w3.org/2000/svg"
   xmlns:sodipodi="http://sodipodi.sourceforge.net/DTD/sodipodi-0.dtd"
   xmlns:inkscape="http://www.inkscape.org/namespaces/inkscape"
   version="1.1"
   id="Layer_1"
   x="0px"
   y="0px"
   viewBox="0 0 150.91743 29.678153"
   xml:space="preserve"
   inkscape:version="0.91 r"
   sodipodi:docname="moustache.svg"
   width="150.91743"
   height="29.678154"><metadata
     id="metadata41"><rdf:RDF><cc:Work
         rdf:about=""><dc:format>image/svg+xml</dc:format><dc:type
           rdf:resource="http://purl.org/dc/dcmitype/StillImage" /><dc:title></dc:title></cc:Work></rdf:RDF></metadata><defs
     id="defs39" /><sodipodi:namedview
     pagecolor="#ffffff"
     bordercolor="#666666"
     borderopacity="1"
     objecttolerance="10"
     gridtolerance="10"
     guidetolerance="10"
     inkscape:pageopacity="0"
     inkscape:pageshadow="2"
     inkscape:window-width="1920"
     inkscape:window-height="1148"
     id="namedview37"
     showgrid="false"
     fit-margin-top="0"
     fit-margin-left="0"
     fit-margin-right="0"
     fit-margin-bottom="0"
     inkscape:zoom="6.2550935"
     inkscape:cx="106.66117"
     inkscape:cy="30.337331"
     inkscape:window-x="0"
     inkscape:window-y="0"
     inkscape:window-maximized="1"
     inkscape:current-layer="Layer_1" /><g
     id="g3"
     transform="matrix(0.88149082,0,0,0.66617763,8.9422506,-35.429642)"><path
       style="fill:#59312e"
       d="m 150.125,70.067 c -0.784,-1.498 -2.254,-2.477 -3.956,-1.983 0.692,-0.201 5.691,4.527 1.267,9.768 -1.153,1.365 -2.454,2.591 -4.122,3.231 -15.498,5.943 -25.434,-12.317 -36.096,-19.771 -8.265,-5.776 -19.82,-8.224 -28.178,-1.164 -1.516,1.28 -2.715,2.765 -3.581,4.378 -0.865,-1.613 -2.064,-3.098 -3.58,-4.378 C 63.521,53.088 51.967,55.536 43.703,61.312 33.04,68.766 23.103,87.026 7.605,81.083 5.937,80.442 4.636,79.217 3.483,77.852 -0.942,72.612 4.056,67.883 4.75,68.084 3.047,67.591 1.577,68.569 0.793,70.067 c -0.954,1.824 -0.979,4.033 -0.435,6.019 2.271,8.292 10.984,13.423 18.554,16.077 7.978,2.797 16.698,3.426 25.071,2.584 1.756,-0.177 3.504,-0.422 5.24,-0.741 8.51,-1.568 17.24,-5.055 23.071,-11.687 1.256,-1.427 2.332,-3.01 3.164,-4.718 0.833,1.708 1.909,3.291 3.164,4.718 5.831,6.632 14.562,10.118 23.071,11.687 1.735,0.319 3.485,0.565 5.239,0.741 8.376,0.842 17.096,0.213 25.072,-2.584 7.57,-2.654 16.282,-7.785 18.555,-16.077 0.545,-1.985 0.521,-4.194 -0.434,-6.019 z"
       id="path5"
       inkscape:connector-curvature="0" /></g><g
     id="g7"
     transform="translate(-3.3978456e-4,-65.415444)" /><g
     id="g9"
     transform="translate(-3.3978456e-4,-65.415444)" /><g
     id="g11"
     transform="translate(-3.3978456e-4,-65.415444)" /><g
     id="g13"
     transform="translate(-3.3978456e-4,-65.415444)" /><g
     id="g15"
     transform="translate(-3.3978456e-4,-65.415444)" /><g
     id="g17"
     transform="translate(-3.3978456e-4,-65.415444)" /><g
     id="g19"
     transform="translate(-3.3978456e-4,-65.415444)" /><g
     id="g21"
     transform="translate(-3.3978456e-4,-65.415444)" /><g
     id="g23"
     transform="translate(-3.3978456e-4,-65.415444)" /><g
     id="g25"
     transform="translate(-3.3978456e-4,-65.415444)" /><g
     id="g27"
     transform="translate(-3.3978456e-4,-65.415444)" /><g
     id="g29"
     transform="translate(-3.3978456e-4,-65.415444)" /><g
     id="g31"
     transform="translate(-3.3978456e-4,-65.415444)" /><g
     id="g33"
     transform="translate(-3.3978456e-4,-65.415444)" /><g
     id="g35"
     transform="translate(-3.3978456e-4,-65.415444)" /></svg>